<?xml version="1.0" encoding="iso-8859-1"?>
<!-- Generator: Adobe Illustrator 19.0.0, SVG Export Plug-In . SVG Version: 6.00 Build 0)  -->
<svg version="1.1" id="Capa_1" xmlns="http://www.w3.org/2000/svg" xmlns:xlink="http://www.w3.org/1999/xlink" x="0px" y="0px"
	 viewBox="0 0 511.999 511.999" style="enable-background:new 0 0 511.999 511.999;" xml:space="preserve">
<polygon style="fill:#F7C800;" points="199.126,351.827 199.126,435.476 174.166,414.045 149.217,435.476 149.217,196.133 
	153.811,210.476 "/>
<polygon style="fill:#CCA602;" points="199.126,351.827 199.126,386.128 197.752,387.085 149.217,368.532 149.217,232.567 
	153.811,210.476 "/>
<path style="fill:#EAEAF2;" d="M498.753,346.045L346.049,498.749L13.252,165.953c-15.827-15.827-17.046-42.622-5.957-70.681
	c7.056-17.827,19.058-36.159,35.434-52.535C84.9,0.566,140.073-12.634,165.956,13.249l12.2,12.2l93.135,93.135l143.384,143.384
	L498.753,346.045z"/>
<path style="fill:#CBCBD8;" d="M378.405,466.383l-32.356,32.367L13.252,165.954c-15.827-15.827-17.046-42.622-5.957-70.681
	L378.405,466.383z"/>
<path style="fill:#00AEDA;" d="M344.122,191.417c-19.359-19.359-55.1-16.849-89.536,3.303l67.652,67.652
	c34.436-20.151,70.177-22.662,89.536-3.303"/>
<path style="fill:#939AA0;" d="M504.061,418.276c-7.122,17.333-18.904,35.082-34.796,50.986
	c-42.171,42.171-97.333,55.371-123.216,29.488c-21.377-21.377-16.09-62.746,10.166-100.257c5.528-7.902,11.991-15.629,19.322-22.959
	c42.16-42.171,97.333-55.371,123.216-29.488C514.876,362.17,515.832,389.657,504.061,418.276z"/>
<path style="fill:#BABFC5;" d="M504.061,418.276c-7.122,17.333-18.904,35.082-34.796,50.986
	c-42.171,42.171-97.333,55.371-123.216,29.488c-21.377-21.377-16.09-62.746,10.166-100.257
	c42.072-34.357,98.795-36.852,131.679-3.979C494.862,401.483,500.236,409.529,504.061,418.276z"/>
<path style="fill:#939AA0;" d="M469.26,469.263c-42.171,42.171-97.333,55.371-123.216,29.488
	c-25.883-25.883-12.683-81.056,29.488-123.216l33.335,33.335c-27.18,27.169-35.687,62.713-19.003,79.396
	C406.537,504.938,442.091,496.431,469.26,469.263z"/>
<path style="fill:#F7C800;" d="M316.66,163.953c-25.883-25.883-81.045-12.672-123.216,29.488
	c-16.387,16.387-28.389,34.73-35.434,52.546c-11.09,28.059-9.881,54.843,5.946,70.67l-28.312-28.312
	c-15.827-15.827-17.035-42.611-5.946-70.67c7.045-17.816,19.047-36.159,35.434-52.546c42.171-42.16,97.333-55.371,123.216-29.488
	L316.66,163.953z"/>
<g>
	<path style="fill:#414551;" d="M89.424,72.058c3.452-2.967,3.843-8.173,0.875-11.625c-2.967-3.451-8.172-3.843-11.625-0.875
		c-3.322,2.856-6.657,5.956-9.912,9.21c-24.074,24.074-40.173,53.418-44.169,80.508c-0.664,4.504,2.449,8.694,6.953,9.357
		c0.408,0.06,0.812,0.089,1.213,0.089c4.02,0,7.541-2.945,8.145-7.042c3.49-23.661,17.893-49.633,39.516-71.256
		C83.383,77.462,86.413,74.647,89.424,72.058z"/>
	<path style="fill:#414551;" d="M111.974,94.608c3.452-2.967,3.843-8.173,0.875-11.625c-2.967-3.451-8.173-3.843-11.625-0.875
		c-3.322,2.856-6.657,5.956-9.912,9.21c-24.074,24.073-40.172,53.418-44.168,80.508c-0.664,4.504,2.449,8.694,6.953,9.357
		c0.408,0.06,0.812,0.089,1.213,0.089c4.02,0,7.541-2.945,8.145-7.042c3.49-23.66,17.893-49.632,39.516-71.255
		C105.934,100.012,108.964,97.198,111.974,94.608z"/>
	<path style="fill:#414551;" d="M134.525,117.16c3.452-2.967,3.843-8.173,0.875-11.625c-2.967-3.451-8.172-3.843-11.625-0.875
		c-3.324,2.859-6.659,5.957-9.912,9.211c-24.074,24.073-40.172,53.417-44.168,80.506c-0.664,4.504,2.449,8.694,6.953,9.357
		c0.408,0.06,0.812,0.089,1.213,0.089c4.02,0,7.541-2.945,8.145-7.042c3.49-23.661,17.893-49.633,39.516-71.256
		C128.485,122.565,131.512,119.749,134.525,117.16z"/>
	<path style="fill:#414551;" d="M271.29,118.583c-3.22,3.22-8.441,3.22-11.661,0c-16.079-16.079-47.304-14.277-79.539,4.594
		c-1.308,0.758-2.748,1.132-4.154,1.132c-2.836,0-5.594-1.462-7.122-4.089c-2.297-3.924-0.978-8.979,2.945-11.276
		c20.618-12.068,41.281-17.959,59.36-17.629c-17.134-10.727-44.952-7.441-73.582,9.309c-1.308,0.769-2.737,1.132-4.154,1.132
		c-2.836,0-5.594-1.462-7.122-4.089c-2.297-3.924-0.978-8.968,2.945-11.276c20.629-12.068,41.281-17.959,59.36-17.629
		c-17.134-10.727-44.952-7.441-73.582,9.309c-1.308,0.769-2.737,1.132-4.154,1.132c-2.836,0-5.583-1.462-7.122-4.078
		c-2.297-3.935-0.978-8.979,2.956-11.276c20.618-12.068,41.281-17.959,59.349-17.64c-17.134-10.727-44.952-7.441-73.582,9.309
		c-1.308,0.769-2.737,1.132-4.154,1.132c-2.825,0-5.583-1.462-7.122-4.078c-2.297-3.935-0.978-8.979,2.956-11.276
		c26.465-15.486,52.997-20.805,74.044-15.849L271.29,118.583z"/>
	<path style="fill:#414551;" d="M146.327,127.211c-3.32,2.854-6.655,5.954-9.912,9.211c-24.074,24.073-40.172,53.417-44.168,80.506
		c-0.664,4.504,2.449,8.694,6.953,9.357c0.408,0.06,0.812,0.089,1.213,0.089c4.02,0,7.541-2.945,8.145-7.042
		c3.49-23.661,17.893-49.633,39.516-71.256c2.966-2.966,5.995-5.782,9.004-8.368c3.452-2.967,3.843-8.173,0.875-11.625
		C154.983,124.635,149.779,124.242,146.327,127.211z"/>
	<path style="fill:#414551;" d="M303.388,286.022c3.452-2.969,3.843-8.173,0.875-11.625s-8.172-3.843-11.625-0.875
		c-3.32,2.855-6.656,5.954-9.912,9.211c-24.074,24.074-40.173,53.418-44.168,80.508c-0.664,4.504,2.449,8.694,6.953,9.357
		c0.408,0.06,0.812,0.089,1.213,0.089c4.02,0,7.541-2.945,8.145-7.042c3.49-23.661,17.893-49.633,39.516-71.256
		C297.351,291.425,300.379,288.609,303.388,286.022z"/>
	<path style="fill:#414551;" d="M325.939,308.573c3.452-2.969,3.843-8.173,0.875-11.625c-2.97-3.453-8.173-3.843-11.625-0.875
		c-3.32,2.855-6.656,5.954-9.912,9.211c-24.074,24.074-40.173,53.418-44.168,80.508c-0.664,4.504,2.449,8.694,6.953,9.357
		c0.408,0.06,0.812,0.089,1.213,0.089c4.02,0,7.541-2.945,8.145-7.042c3.49-23.661,17.893-49.633,39.516-71.256
		C319.902,313.976,322.93,311.16,325.939,308.573z"/>
	<path style="fill:#414551;" d="M462.703,309.996c-3.22,3.22-8.441,3.22-11.661,0c-16.079-16.079-47.304-14.277-79.539,4.594
		c-1.308,0.758-2.748,1.132-4.154,1.132c-2.836,0-5.594-1.462-7.122-4.089c-2.297-3.924-0.978-8.979,2.945-11.276
		c20.618-12.068,41.281-17.959,59.36-17.629c-17.134-10.727-44.952-7.441-73.582,9.309c-1.308,0.769-2.737,1.132-4.154,1.132
		c-2.836,0-5.583-1.462-7.122-4.089c-2.297-3.924-0.978-8.968,2.956-11.276c26.465-15.486,52.997-20.805,74.044-15.838
		L462.703,309.996z"/>
	<path style="fill:#414551;" d="M337.741,318.625c-3.324,2.859-6.658,5.957-9.911,9.21c-24.074,24.074-40.173,53.418-44.169,80.508
		c-0.664,4.504,2.449,8.694,6.953,9.357c0.408,0.06,0.812,0.089,1.213,0.089c4.02,0,7.541-2.945,8.145-7.042
		c3.49-23.661,17.893-49.633,39.516-71.256c2.963-2.963,5.992-5.778,9.005-8.369c3.451-2.969,3.843-8.173,0.874-11.625
		C346.397,316.047,341.192,315.655,337.741,318.625z"/>
	<path style="fill:#414551;" d="M235.737,218.371c3.452-2.969,3.843-8.173,0.875-11.625c-2.969-3.453-8.173-3.845-11.625-0.875
		c-3.319,2.854-6.654,5.954-9.912,9.211C191,239.155,174.902,268.5,170.906,295.59c-0.664,4.504,2.449,8.694,6.953,9.357
		c0.408,0.06,0.812,0.089,1.213,0.089c4.02,0,7.541-2.945,8.145-7.042c3.49-23.661,17.893-49.633,39.515-71.256
		C229.7,223.772,232.73,220.957,235.737,218.371z"/>
	<path style="fill:#414551;" d="M258.287,240.921c3.452-2.969,3.843-8.173,0.875-11.625c-2.969-3.452-8.172-3.843-11.625-0.875
		c-3.32,2.855-6.656,5.954-9.912,9.211c-24.074,24.074-40.173,53.418-44.169,80.508c-0.664,4.504,2.449,8.694,6.953,9.357
		c0.408,0.06,0.812,0.089,1.213,0.089c4.02,0,7.541-2.945,8.145-7.042c3.49-23.661,17.893-49.633,39.516-71.256
		C252.249,246.324,255.278,243.508,258.287,240.921z"/>
	<path style="fill:#414551;" d="M280.838,263.472c3.452-2.969,3.843-8.173,0.875-11.625c-2.969-3.453-8.173-3.843-11.625-0.875
		c-3.32,2.855-6.656,5.954-9.912,9.211c-24.074,24.074-40.173,53.418-44.169,80.508c-0.664,4.504,2.449,8.694,6.953,9.357
		c0.408,0.06,0.812,0.089,1.213,0.089c4.02,0,7.541-2.945,8.145-7.042c3.49-23.661,17.893-49.633,39.516-71.256
		C274.8,268.875,277.829,266.059,280.838,263.472z"/>
</g>
<path style="fill:#CCA602;" d="M163.956,316.656l-28.312-28.312c-15.827-15.827-17.035-42.611-5.946-70.67l28.312,28.312
	C146.92,274.046,148.129,300.83,163.956,316.656z"/>
<g>
</g>
<g>
</g>
<g>
</g>
<g>
</g>
<g>
</g>
<g>
</g>
<g>
</g>
<g>
</g>
<g>
</g>
<g>
</g>
<g>
</g>
<g>
</g>
<g>
</g>
<g>
</g>
<g>
</g>
</svg>
